HIERARCHY
ROOT Hips
{
	OFFSET 0.000000 0.000000 0.000000
	CHANNELS 6 Xposition Yposition Zposition Zrotation Yrotation Xrotation 
	JOINT LHipJoint
	{
		OFFSET 0.000000 0.000000 0.000000
		CHANNELS 3 Zrotation Yrotation Xrotation
		JOINT LeftUpLeg
		{
			OFFSET 1.363060 -1.794630 0.839290
			CHANNELS 3 Zrotation Yrotation Xrotation
			JOINT LeftLeg
			{
				OFFSET 2.448110 -6.726130 0.000000
				CHANNELS 3 Zrotation Yrotation Xrotation
				JOINT LeftFoot
				{
					OFFSET 2.562200 -7.039590 0.000000
					CHANNELS 3 Zrotation Yrotation Xrotation
					JOINT LeftToeBase
					{
						OFFSET 0.157640 -0.433110 2.322550
						CHANNELS 3 Zrotation Yrotation Xrotation
						End Site
						{
							OFFSET 0.000000 0.000000 0.000000
						}
					}
				}
			}
		}
	}
	JOINT RHipJoint
	{
		OFFSET 0.000000 0.000000 0.000000
		CHANNELS 3 Zrotation Yrotation Xrotation
		JOINT RightUpLeg
		{
			OFFSET -1.305520 -1.794630 0.839290
			CHANNELS 3 Zrotation Yrotation Xrotation
			JOINT RightLeg
			{
				OFFSET -2.542530 -6.985550 0.000000
				CHANNELS 3 Zrotation Yrotation Xrotation
				JOINT RightFoot
				{
					OFFSET -2.568260 -7.056230 0.000000
					CHANNELS 3 Zrotation Yrotation Xrotation
					JOINT RightToeBase
					{
						OFFSET -0.164730 -0.452590 2.363150
						CHANNELS 3 Zrotation Yrotation Xrotation
						End Site
						{
							OFFSET 0.000000 0.000000 0.000000
						}
					}
				}
			}
		}
	}
	JOINT LowerBack
	{
		OFFSET 0.000000 0.000000 0.000000
		CHANNELS 3 Zrotation Yrotation Xrotation
		JOINT Spine
		{
			OFFSET 0.028270 2.035590 -0.193380
			CHANNELS 3 Zrotation Yrotation Xrotation
			JOINT Spine1
			{
				OFFSET 0.056720 2.048850 -0.042750
				CHANNELS 3 Zrotation Yrotation Xrotation
				JOINT Neck
				{
					OFFSET 0.000000 0.000000 0.000000
					CHANNELS 3 Zrotation Yrotation Xrotation
					JOINT Neck1
					{
						OFFSET -0.054170 1.746240 0.172020
						CHANNELS 3 Zrotation Yrotation Xrotation
						JOINT Head
						{
							OFFSET 0.104070 1.761360 -0.123970
							CHANNELS 3 Zrotation Yrotation Xrotation
							End Site
							{
								OFFSET 0.000000 0.000000 0.000000
							}
						}
					}
				}
				JOINT LeftShoulder
				{
					OFFSET 0.000000 0.000000 0.000000
					CHANNELS 3 Zrotation Yrotation Xrotation
					JOINT LeftArm
					{
						OFFSET 3.362410 1.200890 -0.311210
						CHANNELS 3 Zrotation Yrotation Xrotation
						JOINT LeftForeArm
						{
							OFFSET 4.983000 -0.000000 -0.000000
							CHANNELS 3 Zrotation Yrotation Xrotation
							JOINT LeftHand
							{
								OFFSET 3.483560 -0.000000 -0.000000
								CHANNELS 3 Zrotation Yrotation Xrotation
								JOINT LeftFingerBase
								{
									OFFSET 0.000000 0.000000 0.000000
									CHANNELS 3 Zrotation Yrotation Xrotation
									JOINT LeftHandIndex1
									{
										OFFSET 0.715260 -0.000000 -0.000000
										CHANNELS 3 Zrotation Yrotation Xrotation
										End Site
										{
											OFFSET 0.000000 0.000000 0.000000
										}
									}
								}
								JOINT LThumb
								{
									OFFSET 0.000000 0.000000 0.000000
									CHANNELS 3 Zrotation Yrotation Xrotation
									End Site
									{
										OFFSET 0.000000 0.000000 0.000000
									}
								}
							}
						}
					}
				}
				JOINT RightShoulder
				{
					OFFSET 0.000000 0.000000 0.000000
					CHANNELS 3 Zrotation Yrotation Xrotation
					JOINT RightArm
					{
						OFFSET -3.136600 1.374050 -0.404650
						CHANNELS 3 Zrotation Yrotation Xrotation
						JOINT RightForeArm
						{
							OFFSET -5.241900 -0.000000 -0.000000
							CHANNELS 3 Zrotation Yrotation Xrotation
							JOINT RightHand
							{
								OFFSET -3.444170 -0.000000 -0.000000
								CHANNELS 3 Zrotation Yrotation Xrotation
								JOINT RightFingerBase
								{
									OFFSET 0.000000 0.000000 0.000000
									CHANNELS 3 Zrotation Yrotation Xrotation
									JOINT RightHandIndex1
									{
										OFFSET -0.622530 -0.000000 -0.000000
										CHANNELS 3 Zrotation Yrotation Xrotation
										End Site
										{
											OFFSET 0.000000 0.000000 0.000000
										}
									}
								}
								JOINT RThumb
								{
									OFFSET 0.000000 0.000000 0.000000
									CHANNELS 3 Zrotation Yrotation Xrotation
									End Site
									{
										OFFSET 0.000000 0.000000 0.000000
									}
								}
							}
						}
					}
				}
			}
		}
	}
}
MOTION
Frames: 5
Frame Time: 0.008333
15.684116 15.669641 2.310847 2.172364 -87.872895 26.111964 -12.365133 2.516572 -3.431380 -5.275955 12.261390 -17.370916 -2.446976 2.229051 40.768650 0.485013 0.617374 -13.938343 -0.207300 -0.000000 -72.783900 7.511744 0.947627 -0.176193 18.220975 0.421567 -71.561848 2.734375 -4.986590 49.412052 0.033575 3.466126 -10.324032 0.001700 -0.000000 -24.984300 6.928245 -4.493096 5.674808 0.852609 -4.795145 -1.398793 -5.759166 -4.805385 1.444072 11.002390 -19.352415 -13.013324 -2.152084 -0.062170 -1.830793 0.000000 0.000000 0.000000 11.071982 8.779277 1.101277 -43.745708 -12.720369 -7.611707 -179.238466 -76.198454 -179.976312 -2.672937 4.829554 -0.103501 0.033363 0.436394 0.000000 0.000000 0.000000 0.000000 0.000000 0.000000 0.000000 12.316456 -16.473144 2.755410 67.197467 -16.829991 1.048451 1.746614 59.312158 0.014224 1.707412 6.286251 0.092821 0.072940 -0.155634 0.000000 0.000000 0.000000 0.000000 0.000000 0.000000 0.000000 
15.475033 15.640286 2.295270 2.590661 -87.885879 25.424074 -12.384332 2.648903 -3.359843 -4.838922 11.970689 -16.141657 -2.337124 2.230713 40.441380 0.431604 0.425146 -12.686358 -0.139700 0.000000 -74.002200 7.590400 1.081953 -0.376924 17.907717 0.318348 -71.229450 2.491239 -5.108242 51.558406 0.014426 3.639477 -11.299074 -0.000701 0.000000 -18.960600 7.359631 -4.523713 5.785670 0.957455 -4.831694 -1.385125 -5.721861 -4.841778 1.430662 10.884760 -19.314790 -13.025980 -2.195382 -0.066202 -1.832852 0.000000 0.000000 0.000000 10.967591 8.839448 1.125022 -44.289630 -11.802290 -7.290247 -179.193667 -75.671373 -179.974020 -2.952734 4.781762 -0.113330 0.038644 0.432785 0.000000 0.000000 0.000000 0.000000 0.000000 0.000000 0.000000 12.325819 -16.385976 2.719094 67.003745 -16.602218 0.899662 1.735792 59.775618 0.014394 1.801291 6.191049 0.096725 0.072817 -0.156831 0.000000 0.000000 0.000000 0.000000 0.000000 0.000000 0.000000 
15.266610 15.613592 2.281379 2.090652 -87.906363 25.693289 -12.434610 2.767959 -3.270760 -4.379837 11.588048 -15.073481 -2.207822 2.254581 40.292731 0.386429 0.263485 -11.322342 -0.084200 -0.000001 -74.942401 7.633191 1.186894 -0.571992 17.708843 0.247922 -70.844796 2.282489 -5.203273 53.550106 -0.032501 3.706378 -12.413422 -0.011300 0.000000 -13.850600 7.809445 -4.544559 5.878304 1.062847 -4.860257 -1.378343 -5.690820 -4.870277 1.409371 10.790105 -19.243103 -13.024236 -2.251219 -0.071581 -1.831062 0.000000 0.000000 0.000000 10.873104 8.872270 1.144847 -44.970170 -10.849782 -6.916738 -179.152090 -75.207221 -179.971799 -3.229646 4.739530 -0.122958 0.044106 0.428736 0.000000 0.000000 0.000000 0.000000 0.000000 0.000000 0.000000 12.396042 -16.264879 2.682953 66.753744 -16.269354 0.777419 1.728607 60.191117 0.014534 1.864341 6.093233 0.098733 0.073162 -0.158143 0.000000 0.000000 0.000000 0.000000 0.000000 0.000000 0.000000 
15.059482 15.590072 2.268626 0.813295 -87.937301 26.783800 -12.514345 2.875032 -3.167032 -3.914695 11.118470 -14.189873 -2.060456 2.301532 40.351660 0.353387 0.148619 -9.864019 -0.043300 -0.000000 -75.498201 7.640881 1.264603 -0.760089 17.619586 0.210236 -70.407387 2.108848 -5.271086 55.348077 -0.106685 3.663839 -13.637896 -0.021600 -0.000000 -9.752400 8.261786 -4.552763 5.954612 1.165272 -4.877549 -1.377260 -5.666296 -4.887492 1.381021 10.723832 -19.142375 -13.007866 -2.317964 -0.078128 -1.825492 0.000000 0.000000 0.000000 10.798029 8.875510 1.158717 -45.786178 -9.874611 -6.494654 -179.115701 -74.818282 -179.969658 -3.501767 4.704084 -0.132488 0.049857 0.424268 0.000000 0.000000 0.000000 0.000000 0.000000 0.000000 0.000000 12.528313 -16.115476 2.647990 66.463045 -15.829201 0.669077 1.724695 60.555077 0.014652 1.891684 6.002585 0.098742 0.074000 -0.159690 0.000000 0.000000 0.000000 0.000000 0.000000 0.000000 0.000000 
14.854042 15.569890 2.256395 -1.030675 -87.971218 28.498933 -12.620995 2.968821 -3.046983 -3.461519 10.564527 -13.532808 -1.896559 2.369838 40.652005 0.336220 0.097641 -8.345512 -0.017600 0.000000 -75.546300 7.615254 1.315020 -0.931363 17.624656 0.214954 -69.938138 1.966628 -5.312575 56.925381 -0.207186 3.504018 -14.911568 -0.021200 -0.000000 -6.931301 8.703419 -4.547986 6.000940 1.262464 -4.883398 -1.383908 -5.647983 -4.893263 1.347780 10.688636 -19.015017 -12.976380 -2.393764 -0.085676 -1.815744 0.000000 0.000000 0.000000 10.750047 8.849930 1.165138 -46.733339 -8.887915 -6.024363 -179.086192 -74.515009 -179.967594 -3.768535 4.676169 -0.141917 0.055960 0.419430 0.000000 0.000000 0.000000 0.000000 0.000000 0.000000 0.000000 12.719651 -15.941385 2.613907 66.148858 -15.290190 0.560715 1.723682 60.868950 0.014752 1.883005 5.926421 0.097053 0.075317 -0.161554 0.000000 0.000000 0.000000 0.000000 0.000000 0.000000 0.000000 
